<?xml version="1.0" ?><!DOCTYPE svg  PUBLIC '-//W3C//DTD SVG 1.1//EN'  'http://www.w3.org/Graphics/SVG/1.1/DTD/svg11.dtd'><svg height="260px" style="shape-rendering:geometricPrecision; text-rendering:geometricPrecision; image-rendering:optimizeQuality; fill-rule:evenodd; clip-rule:evenodd" version="1.1" viewBox="0 0 256000 259648" width="256px" xml:space="preserve" xmlns="http://www.w3.org/2000/svg" xmlns:xlink="http://www.w3.org/1999/xlink"><defs><style type="text/css">
   <![CDATA[
    .fil1 {fill:none}
    .fil0 {fill:#F7A80D;fill-rule:nonzero}
   ]]>
  </style></defs><g id="Layer_x0020_1"><polygon class="fil0" points="116777,258348 4312,218004 2511,217357 2511,215461 2511,50619 2511,46833 6092,48054 118557,86375 120401,87004 120401,88940 120401,255805 120401,259648 "/><polygon class="fil0" points="251688,218004 139225,258348 135600,259648 135600,255805 135600,88940 135600,87004 137444,86375 249908,48054 253489,46833 253489,50619 253489,215461 253489,217357 "/><polygon class="fil0" points="16051,35685 129873,3646 131430,3678 236969,37707 237011,42846 131472,78676 129756,78676 15934,40856 "/></g><rect class="fil1" height="256000" width="256000"/></svg>