<?xml version="1.0" standalone="no"?>
<!DOCTYPE svg PUBLIC "-//W3C//DTD SVG 20010904//EN"
 "http://www.w3.org/TR/2001/REC-SVG-20010904/DTD/svg10.dtd">
<svg version="1.0" xmlns="http://www.w3.org/2000/svg"
 width="151.000000pt" height="150.000000pt" viewBox="0 0 151.000000 150.000000"
 preserveAspectRatio="xMidYMid meet">

<g transform="translate(0.000000,150.000000) scale(0.100000,-0.100000)"
fill="#FFF" stroke="none">
<path d="M1009 1314 c-10 -13 -14 -82 -17 -303 l-4 -286 28 -40 c15 -22 47
-71 70 -110 l44 -69 0 400 c0 298 -3 403 -12 412 -18 18 -93 15 -109 -4z"/>
<path d="M316 1284 c-14 -14 -16 -68 -16 -450 0 -281 4 -442 10 -455 8 -14 21
-19 55 -19 77 0 75 -12 75 362 l0 332 43 -62 c23 -34 123 -181 222 -328 99
-147 246 -356 327 -466 l148 -198 54 0 55 0 -213 323 c-117 177 -310 469 -429
650 l-216 327 -50 0 c-32 0 -55 -6 -65 -16z"/>
</g>
</svg>
